<svg width="100%" height="100%" id="svg" viewBox="0 0 1440 690" xmlns="http://www.w3.org/2000/svg" class="transition duration-300 ease-in-out delay-150"><defs><linearGradient id="gradient" x1="0%" y1="50%" x2="100%" y2="50%"><stop offset="5%" stop-color="#abb8c3"></stop><stop offset="95%" stop-color="#8ed1fc"></stop></linearGradient></defs><path d="M 0,700 C 0,700 0,233 0,233 C 109.1866028708134,263.3062200956938 218.3732057416268,293.6124401913876 303,314 C 387.6267942583732,334.3875598086124 447.6937799043062,344.8564593301436 548,313 C 648.3062200956938,281.1435406698564 788.8516746411483,206.96172248803828 894,194 C 999.1483253588517,181.03827751196172 1068.8995215311004,229.29665071770336 1154,246 C 1239.1004784688996,262.70334928229664 1339.5502392344497,247.85167464114832 1440,233 C 1440,233 1440,700 1440,700 Z" stroke="none" stroke-width="0" fill="url(#gradient)" fill-opacity="0.53" class="transition-all duration-300 ease-in-out delay-150 path-0" transform="rotate(-180 720 350)"></path><defs><linearGradient id="gradient" x1="0%" y1="50%" x2="100%" y2="50%"><stop offset="5%" stop-color="#abb8c3"></stop><stop offset="95%" stop-color="#8ed1fc"></stop></linearGradient></defs><path d="M 0,700 C 0,700 0,466 0,466 C 91.54066985645932,488.8038277511962 183.08133971291863,511.60765550239233 295,506 C 406.91866028708137,500.39234449760767 539.2153110047847,466.37320574162686 626,470 C 712.7846889952153,473.62679425837314 754.0574162679427,514.8995215311004 836,503 C 917.9425837320573,491.10047846889955 1040.5550239234449,426.0287081339713 1148,411 C 1255.4449760765551,395.9712918660287 1347.7224880382776,430.9856459330143 1440,466 C 1440,466 1440,700 1440,700 Z" stroke="none" stroke-width="0" fill="url(#gradient)" fill-opacity="1" class="transition-all duration-300 ease-in-out delay-150 path-1" transform="rotate(-180 720 350)"></path></svg>